<svg id="visual" viewBox="0 0 1920 300" width="1920" height="300" xmlns="http://www.w3.org/2000/svg" xmlns:xlink="http://www.w3.org/1999/xlink" version="1.1"><path d="M0 117L16.8 117.3C33.7 117.7 67.3 118.3 101 111.2C134.7 104 168.3 89 202 91C235.7 93 269.3 112 303 110C336.7 108 370.3 85 404 74C437.7 63 471.3 64 505 70.3C538.7 76.7 572.3 88.3 606 87.5C639.7 86.7 673.3 73.3 707 74.7C740.7 76 774.3 92 808 102.5C841.7 113 875.3 118 909.2 118C943 118 977 113 1010.8 103.7C1044.7 94.3 1078.3 80.7 1112 77.8C1145.7 75 1179.3 83 1213 87.2C1246.7 91.3 1280.3 91.7 1314 98.3C1347.7 105 1381.3 118 1415 122.5C1448.7 127 1482.3 123 1516 114C1549.7 105 1583.3 91 1617 90.3C1650.7 89.7 1684.3 102.3 1718 99.2C1751.7 96 1785.3 77 1819 68.8C1852.7 60.7 1886.3 63.3 1903.2 64.7L1920 66L1920 301L1903.2 301C1886.3 301 1852.7 301 1819 301C1785.3 301 1751.7 301 1718 301C1684.3 301 1650.7 301 1617 301C1583.3 301 1549.7 301 1516 301C1482.3 301 1448.7 301 1415 301C1381.3 301 1347.7 301 1314 301C1280.3 301 1246.7 301 1213 301C1179.3 301 1145.7 301 1112 301C1078.3 301 1044.7 301 1010.8 301C977 301 943 301 909.2 301C875.3 301 841.7 301 808 301C774.3 301 740.7 301 707 301C673.3 301 639.7 301 606 301C572.3 301 538.7 301 505 301C471.3 301 437.7 301 404 301C370.3 301 336.7 301 303 301C269.3 301 235.7 301 202 301C168.3 301 134.7 301 101 301C67.3 301 33.7 301 16.8 301L0 301Z" fill="#c9cce0"></path><path d="M0 126L16.8 127.2C33.7 128.3 67.3 130.7 101 134.5C134.7 138.3 168.3 143.7 202 142C235.7 140.3 269.3 131.7 303 128.8C336.7 126 370.3 129 404 124.3C437.7 119.7 471.3 107.3 505 104C538.7 100.7 572.3 106.3 606 108.5C639.7 110.7 673.3 109.3 707 117.2C740.7 125 774.3 142 808 143.5C841.7 145 875.3 131 909.2 126C943 121 977 125 1010.8 125C1044.7 125 1078.3 121 1112 116.2C1145.7 111.3 1179.3 105.7 1213 111.2C1246.7 116.7 1280.3 133.3 1314 139.8C1347.7 146.3 1381.3 142.7 1415 134.8C1448.7 127 1482.3 115 1516 112.3C1549.7 109.7 1583.3 116.3 1617 124C1650.7 131.7 1684.3 140.3 1718 144.2C1751.7 148 1785.3 147 1819 140C1852.7 133 1886.3 120 1903.2 113.5L1920 107L1920 301L1903.2 301C1886.3 301 1852.7 301 1819 301C1785.3 301 1751.7 301 1718 301C1684.3 301 1650.7 301 1617 301C1583.3 301 1549.7 301 1516 301C1482.3 301 1448.7 301 1415 301C1381.3 301 1347.7 301 1314 301C1280.3 301 1246.7 301 1213 301C1179.3 301 1145.7 301 1112 301C1078.3 301 1044.7 301 1010.8 301C977 301 943 301 909.2 301C875.3 301 841.7 301 808 301C774.3 301 740.7 301 707 301C673.3 301 639.7 301 606 301C572.3 301 538.7 301 505 301C471.3 301 437.7 301 404 301C370.3 301 336.7 301 303 301C269.3 301 235.7 301 202 301C168.3 301 134.7 301 101 301C67.3 301 33.7 301 16.8 301L0 301Z" fill="#a7afed"></path><path d="M0 175L16.8 173.5C33.7 172 67.3 169 101 170.8C134.7 172.7 168.3 179.3 202 181C235.7 182.7 269.3 179.3 303 179.8C336.7 180.3 370.3 184.7 404 183.5C437.7 182.3 471.3 175.7 505 167.2C538.7 158.7 572.3 148.3 606 142.2C639.7 136 673.3 134 707 137C740.7 140 774.3 148 808 148.5C841.7 149 875.3 142 909.2 144.5C943 147 977 159 1010.8 163.8C1044.7 168.7 1078.3 166.3 1112 169C1145.7 171.7 1179.3 179.3 1213 180.8C1246.7 182.3 1280.3 177.7 1314 169.7C1347.7 161.7 1381.3 150.3 1415 149.7C1448.7 149 1482.3 159 1516 164.7C1549.7 170.3 1583.3 171.7 1617 173C1650.7 174.3 1684.3 175.7 1718 170.2C1751.7 164.7 1785.3 152.3 1819 151.2C1852.7 150 1886.3 160 1903.2 165L1920 170L1920 301L1903.2 301C1886.3 301 1852.7 301 1819 301C1785.3 301 1751.7 301 1718 301C1684.3 301 1650.7 301 1617 301C1583.3 301 1549.7 301 1516 301C1482.3 301 1448.7 301 1415 301C1381.3 301 1347.7 301 1314 301C1280.3 301 1246.7 301 1213 301C1179.3 301 1145.7 301 1112 301C1078.3 301 1044.7 301 1010.8 301C977 301 943 301 909.2 301C875.3 301 841.7 301 808 301C774.3 301 740.7 301 707 301C673.3 301 639.7 301 606 301C572.3 301 538.7 301 505 301C471.3 301 437.7 301 404 301C370.3 301 336.7 301 303 301C269.3 301 235.7 301 202 301C168.3 301 134.7 301 101 301C67.3 301 33.7 301 16.8 301L0 301Z" fill="#8691f6"></path><path d="M0 203L16.8 200.8C33.7 198.7 67.3 194.3 101 194C134.7 193.7 168.3 197.3 202 194C235.7 190.7 269.3 180.3 303 175.8C336.7 171.3 370.3 172.7 404 177C437.7 181.3 471.3 188.7 505 188C538.7 187.3 572.3 178.7 606 175C639.7 171.3 673.3 172.7 707 178.5C740.7 184.3 774.3 194.7 808 197.8C841.7 201 875.3 197 909.2 198C943 199 977 205 1010.8 208.7C1044.7 212.3 1078.3 213.7 1112 210.2C1145.7 206.7 1179.3 198.3 1213 193.3C1246.7 188.3 1280.3 186.7 1314 189.5C1347.7 192.3 1381.3 199.7 1415 203.7C1448.7 207.7 1482.3 208.3 1516 208.2C1549.7 208 1583.3 207 1617 202.5C1650.7 198 1684.3 190 1718 185.8C1751.7 181.7 1785.3 181.3 1819 186.7C1852.7 192 1886.3 203 1903.2 208.5L1920 214L1920 301L1903.2 301C1886.3 301 1852.7 301 1819 301C1785.3 301 1751.7 301 1718 301C1684.3 301 1650.7 301 1617 301C1583.3 301 1549.7 301 1516 301C1482.3 301 1448.7 301 1415 301C1381.3 301 1347.7 301 1314 301C1280.3 301 1246.7 301 1213 301C1179.3 301 1145.7 301 1112 301C1078.3 301 1044.7 301 1010.8 301C977 301 943 301 909.2 301C875.3 301 841.7 301 808 301C774.3 301 740.7 301 707 301C673.3 301 639.7 301 606 301C572.3 301 538.7 301 505 301C471.3 301 437.7 301 404 301C370.3 301 336.7 301 303 301C269.3 301 235.7 301 202 301C168.3 301 134.7 301 101 301C67.3 301 33.7 301 16.8 301L0 301Z" fill="#6571fd"></path><path d="M0 214L16.8 218.5C33.7 223 67.3 232 101 235.7C134.7 239.3 168.3 237.7 202 236.8C235.7 236 269.3 236 303 237C336.7 238 370.3 240 404 235.2C437.7 230.3 471.3 218.7 505 218.7C538.7 218.7 572.3 230.3 606 230C639.7 229.7 673.3 217.3 707 216.5C740.7 215.7 774.3 226.3 808 231.5C841.7 236.7 875.3 236.3 909.2 231.7C943 227 977 218 1010.8 214.5C1044.7 211 1078.3 213 1112 215.8C1145.7 218.7 1179.3 222.3 1213 226C1246.7 229.7 1280.3 233.3 1314 234.8C1347.7 236.3 1381.3 235.7 1415 233.5C1448.7 231.3 1482.3 227.7 1516 229.3C1549.7 231 1583.3 238 1617 241.3C1650.7 244.7 1684.3 244.3 1718 239.2C1751.7 234 1785.3 224 1819 223.8C1852.7 223.7 1886.3 233.3 1903.2 238.2L1920 243L1920 301L1903.2 301C1886.3 301 1852.7 301 1819 301C1785.3 301 1751.7 301 1718 301C1684.3 301 1650.7 301 1617 301C1583.3 301 1549.7 301 1516 301C1482.3 301 1448.7 301 1415 301C1381.3 301 1347.7 301 1314 301C1280.3 301 1246.7 301 1213 301C1179.3 301 1145.7 301 1112 301C1078.3 301 1044.7 301 1010.8 301C977 301 943 301 909.2 301C875.3 301 841.7 301 808 301C774.3 301 740.7 301 707 301C673.3 301 639.7 301 606 301C572.3 301 538.7 301 505 301C471.3 301 437.7 301 404 301C370.3 301 336.7 301 303 301C269.3 301 235.7 301 202 301C168.3 301 134.7 301 101 301C67.3 301 33.7 301 16.8 301L0 301Z" fill="#414fff"></path><path d="M0 252L16.8 250.8C33.7 249.7 67.3 247.3 101 250C134.7 252.7 168.3 260.3 202 260.7C235.7 261 269.3 254 303 249.5C336.7 245 370.3 243 404 244.7C437.7 246.3 471.3 251.7 505 255C538.7 258.3 572.3 259.7 606 257.3C639.7 255 673.3 249 707 250.8C740.7 252.7 774.3 262.3 808 263.3C841.7 264.3 875.3 256.7 909.2 253.3C943 250 977 251 1010.8 249.7C1044.7 248.3 1078.3 244.7 1112 245.7C1145.7 246.7 1179.3 252.3 1213 253.7C1246.7 255 1280.3 252 1314 252C1347.7 252 1381.3 255 1415 256.5C1448.7 258 1482.3 258 1516 256.8C1549.7 255.7 1583.3 253.3 1617 254.2C1650.7 255 1684.3 259 1718 262C1751.7 265 1785.3 267 1819 266.3C1852.7 265.7 1886.3 262.3 1903.2 260.7L1920 259L1920 301L1903.2 301C1886.3 301 1852.7 301 1819 301C1785.3 301 1751.7 301 1718 301C1684.3 301 1650.7 301 1617 301C1583.3 301 1549.7 301 1516 301C1482.3 301 1448.7 301 1415 301C1381.3 301 1347.7 301 1314 301C1280.3 301 1246.7 301 1213 301C1179.3 301 1145.7 301 1112 301C1078.3 301 1044.7 301 1010.8 301C977 301 943 301 909.2 301C875.3 301 841.7 301 808 301C774.3 301 740.7 301 707 301C673.3 301 639.7 301 606 301C572.3 301 538.7 301 505 301C471.3 301 437.7 301 404 301C370.3 301 336.7 301 303 301C269.3 301 235.7 301 202 301C168.3 301 134.7 301 101 301C67.3 301 33.7 301 16.8 301L0 301Z" fill="#0321ff"></path></svg>