<svg id="visual" viewBox="0 0 1920 300" width="1920" height="300" xmlns="http://www.w3.org/2000/svg" xmlns:xlink="http://www.w3.org/1999/xlink" version="1.1"><rect x="0" y="0" width="1920" height="300" fill="#383e6d"></rect><path d="M0 181L16.8 180.7C33.7 180.3 67.3 179.7 101 186.8C134.7 194 168.3 209 202 207C235.7 205 269.3 186 303 188C336.7 190 370.3 213 404 224C437.7 235 471.3 234 505 227.7C538.7 221.3 572.3 209.7 606 210.5C639.7 211.3 673.3 224.7 707 223.3C740.7 222 774.3 206 808 195.5C841.7 185 875.3 180 909.2 180C943 180 977 185 1010.8 194.3C1044.7 203.7 1078.3 217.3 1112 220.2C1145.7 223 1179.3 215 1213 210.8C1246.7 206.7 1280.3 206.3 1314 199.7C1347.7 193 1381.3 180 1415 175.5C1448.7 171 1482.3 175 1516 184C1549.7 193 1583.3 207 1617 207.7C1650.7 208.3 1684.3 195.7 1718 198.8C1751.7 202 1785.3 221 1819 229.2C1852.7 237.3 1886.3 234.7 1903.2 233.3L1920 232L1920 0L1903.2 0C1886.3 0 1852.7 0 1819 0C1785.3 0 1751.7 0 1718 0C1684.3 0 1650.7 0 1617 0C1583.3 0 1549.7 0 1516 0C1482.3 0 1448.7 0 1415 0C1381.3 0 1347.7 0 1314 0C1280.3 0 1246.7 0 1213 0C1179.3 0 1145.7 0 1112 0C1078.3 0 1044.7 0 1010.8 0C977 0 943 0 909.2 0C875.3 0 841.7 0 808 0C774.3 0 740.7 0 707 0C673.3 0 639.7 0 606 0C572.3 0 538.7 0 505 0C471.3 0 437.7 0 404 0C370.3 0 336.7 0 303 0C269.3 0 235.7 0 202 0C168.3 0 134.7 0 101 0C67.3 0 33.7 0 16.8 0L0 0Z" fill="#383e6d"></path><path d="M0 172L16.8 170.8C33.7 169.7 67.3 167.3 101 163.5C134.7 159.7 168.3 154.3 202 156C235.7 157.7 269.3 166.3 303 169.2C336.7 172 370.3 169 404 173.7C437.7 178.3 471.3 190.7 505 194C538.7 197.3 572.3 191.7 606 189.5C639.7 187.3 673.3 188.7 707 180.8C740.7 173 774.3 156 808 154.5C841.7 153 875.3 167 909.2 172C943 177 977 173 1010.8 173C1044.7 173 1078.3 177 1112 181.8C1145.7 186.7 1179.3 192.3 1213 186.8C1246.7 181.3 1280.3 164.7 1314 158.2C1347.7 151.7 1381.3 155.3 1415 163.2C1448.7 171 1482.3 183 1516 185.7C1549.7 188.3 1583.3 181.7 1617 174C1650.7 166.3 1684.3 157.7 1718 153.8C1751.7 150 1785.3 151 1819 158C1852.7 165 1886.3 178 1903.2 184.5L1920 191L1920 0L1903.2 0C1886.3 0 1852.7 0 1819 0C1785.3 0 1751.7 0 1718 0C1684.3 0 1650.7 0 1617 0C1583.3 0 1549.7 0 1516 0C1482.3 0 1448.7 0 1415 0C1381.3 0 1347.7 0 1314 0C1280.3 0 1246.7 0 1213 0C1179.3 0 1145.7 0 1112 0C1078.3 0 1044.7 0 1010.8 0C977 0 943 0 909.2 0C875.3 0 841.7 0 808 0C774.3 0 740.7 0 707 0C673.3 0 639.7 0 606 0C572.3 0 538.7 0 505 0C471.3 0 437.7 0 404 0C370.3 0 336.7 0 303 0C269.3 0 235.7 0 202 0C168.3 0 134.7 0 101 0C67.3 0 33.7 0 16.8 0L0 0Z" fill="#303e8b"></path><path d="M0 123L16.8 124.5C33.7 126 67.3 129 101 127.2C134.7 125.3 168.3 118.7 202 117C235.7 115.3 269.3 118.7 303 118.2C336.7 117.7 370.3 113.3 404 114.5C437.7 115.7 471.3 122.3 505 130.8C538.7 139.3 572.3 149.7 606 155.8C639.7 162 673.3 164 707 161C740.7 158 774.3 150 808 149.5C841.7 149 875.3 156 909.2 153.5C943 151 977 139 1010.8 134.2C1044.7 129.3 1078.3 131.7 1112 129C1145.7 126.3 1179.3 118.7 1213 117.2C1246.7 115.7 1280.3 120.3 1314 128.3C1347.7 136.3 1381.3 147.7 1415 148.3C1448.7 149 1482.3 139 1516 133.3C1549.7 127.7 1583.3 126.3 1617 125C1650.7 123.7 1684.3 122.3 1718 127.8C1751.7 133.3 1785.3 145.7 1819 146.8C1852.7 148 1886.3 138 1903.2 133L1920 128L1920 0L1903.2 0C1886.3 0 1852.7 0 1819 0C1785.3 0 1751.7 0 1718 0C1684.3 0 1650.7 0 1617 0C1583.3 0 1549.7 0 1516 0C1482.3 0 1448.7 0 1415 0C1381.3 0 1347.7 0 1314 0C1280.3 0 1246.7 0 1213 0C1179.3 0 1145.7 0 1112 0C1078.3 0 1044.7 0 1010.8 0C977 0 943 0 909.2 0C875.3 0 841.7 0 808 0C774.3 0 740.7 0 707 0C673.3 0 639.7 0 606 0C572.3 0 538.7 0 505 0C471.3 0 437.7 0 404 0C370.3 0 336.7 0 303 0C269.3 0 235.7 0 202 0C168.3 0 134.7 0 101 0C67.3 0 33.7 0 16.8 0L0 0Z" fill="#233ca9"></path><path d="M0 95L16.8 97.2C33.7 99.3 67.3 103.7 101 104C134.7 104.3 168.3 100.7 202 104C235.7 107.3 269.3 117.7 303 122.2C336.7 126.7 370.3 125.3 404 121C437.7 116.7 471.3 109.3 505 110C538.7 110.7 572.3 119.3 606 123C639.7 126.7 673.3 125.3 707 119.5C740.7 113.7 774.3 103.3 808 100.2C841.7 97 875.3 101 909.2 100C943 99 977 93 1010.8 89.3C1044.7 85.7 1078.3 84.3 1112 87.8C1145.7 91.3 1179.3 99.7 1213 104.7C1246.7 109.7 1280.3 111.3 1314 108.5C1347.7 105.7 1381.3 98.3 1415 94.3C1448.7 90.3 1482.3 89.7 1516 89.8C1549.7 90 1583.3 91 1617 95.5C1650.7 100 1684.3 108 1718 112.2C1751.7 116.3 1785.3 116.7 1819 111.3C1852.7 106 1886.3 95 1903.2 89.5L1920 84L1920 0L1903.2 0C1886.3 0 1852.7 0 1819 0C1785.3 0 1751.7 0 1718 0C1684.3 0 1650.7 0 1617 0C1583.3 0 1549.7 0 1516 0C1482.3 0 1448.7 0 1415 0C1381.3 0 1347.7 0 1314 0C1280.3 0 1246.7 0 1213 0C1179.3 0 1145.7 0 1112 0C1078.3 0 1044.7 0 1010.8 0C977 0 943 0 909.2 0C875.3 0 841.7 0 808 0C774.3 0 740.7 0 707 0C673.3 0 639.7 0 606 0C572.3 0 538.7 0 505 0C471.3 0 437.7 0 404 0C370.3 0 336.7 0 303 0C269.3 0 235.7 0 202 0C168.3 0 134.7 0 101 0C67.3 0 33.7 0 16.8 0L0 0Z" fill="#0e38c7"></path><path d="M0 84L16.8 79.5C33.7 75 67.3 66 101 62.3C134.7 58.7 168.3 60.3 202 61.2C235.7 62 269.3 62 303 61C336.7 60 370.3 58 404 62.8C437.7 67.7 471.3 79.3 505 79.3C538.7 79.3 572.3 67.7 606 68C639.7 68.3 673.3 80.7 707 81.5C740.7 82.3 774.3 71.7 808 66.5C841.7 61.3 875.3 61.7 909.2 66.3C943 71 977 80 1010.8 83.5C1044.7 87 1078.3 85 1112 82.2C1145.7 79.3 1179.3 75.7 1213 72C1246.7 68.3 1280.3 64.7 1314 63.2C1347.7 61.7 1381.3 62.3 1415 64.5C1448.7 66.7 1482.3 70.3 1516 68.7C1549.7 67 1583.3 60 1617 56.7C1650.7 53.3 1684.3 53.7 1718 58.8C1751.7 64 1785.3 74 1819 74.2C1852.7 74.3 1886.3 64.7 1903.2 59.8L1920 55L1920 0L1903.2 0C1886.3 0 1852.7 0 1819 0C1785.3 0 1751.7 0 1718 0C1684.3 0 1650.7 0 1617 0C1583.3 0 1549.7 0 1516 0C1482.3 0 1448.7 0 1415 0C1381.3 0 1347.7 0 1314 0C1280.3 0 1246.7 0 1213 0C1179.3 0 1145.7 0 1112 0C1078.3 0 1044.7 0 1010.8 0C977 0 943 0 909.2 0C875.3 0 841.7 0 808 0C774.3 0 740.7 0 707 0C673.3 0 639.7 0 606 0C572.3 0 538.7 0 505 0C471.3 0 437.7 0 404 0C370.3 0 336.7 0 303 0C269.3 0 235.7 0 202 0C168.3 0 134.7 0 101 0C67.3 0 33.7 0 16.8 0L0 0Z" fill="#0030e3"></path><path d="M0 46L16.8 47.2C33.7 48.3 67.3 50.7 101 48C134.7 45.3 168.3 37.7 202 37.3C235.7 37 269.3 44 303 48.5C336.7 53 370.3 55 404 53.3C437.7 51.7 471.3 46.3 505 43C538.7 39.7 572.3 38.3 606 40.7C639.7 43 673.3 49 707 47.2C740.7 45.3 774.3 35.7 808 34.7C841.7 33.7 875.3 41.3 909.2 44.7C943 48 977 47 1010.8 48.3C1044.7 49.7 1078.3 53.3 1112 52.3C1145.7 51.3 1179.3 45.7 1213 44.3C1246.7 43 1280.3 46 1314 46C1347.7 46 1381.3 43 1415 41.5C1448.7 40 1482.3 40 1516 41.2C1549.7 42.3 1583.3 44.7 1617 43.8C1650.7 43 1684.3 39 1718 36C1751.7 33 1785.3 31 1819 31.7C1852.7 32.3 1886.3 35.7 1903.2 37.3L1920 39L1920 0L1903.2 0C1886.3 0 1852.7 0 1819 0C1785.3 0 1751.7 0 1718 0C1684.3 0 1650.7 0 1617 0C1583.3 0 1549.7 0 1516 0C1482.3 0 1448.7 0 1415 0C1381.3 0 1347.7 0 1314 0C1280.3 0 1246.7 0 1213 0C1179.3 0 1145.7 0 1112 0C1078.3 0 1044.7 0 1010.8 0C977 0 943 0 909.2 0C875.3 0 841.7 0 808 0C774.3 0 740.7 0 707 0C673.3 0 639.7 0 606 0C572.3 0 538.7 0 505 0C471.3 0 437.7 0 404 0C370.3 0 336.7 0 303 0C269.3 0 235.7 0 202 0C168.3 0 134.7 0 101 0C67.3 0 33.7 0 16.8 0L0 0Z" fill="#0321ff"></path></svg>